<?xml version="1.0" encoding="utf-8"?>
<!-- Generator: Adobe Illustrator 26.1.0, SVG Export Plug-In . SVG Version: 6.00 Build 0)  -->
<svg version="1.1" id="Layer_1" xmlns="http://www.w3.org/2000/svg" xmlns:xlink="http://www.w3.org/1999/xlink" x="0px" y="0px"
	 viewBox="0 0 100 100" style="enable-background:new 0 0 100 100;" xml:space="preserve">
<style type="text/css">
	.st0{fill:none;stroke:#FFFFFF;stroke-width:3;stroke-linecap:round;stroke-linejoin:round;stroke-miterlimit:10;}
	.st1{clip-path:url(#SVGID_00000080898435931225588370000006080592122556227995_);}
</style>
<g>
	<g>
		<path class="st0" d="M28.9,78.7c0-17.3,14-31.4,31.4-31.4l0,0c17.3,0,31.4,14,31.4,31.4H28.9z"/>
		<circle class="st0" cx="60.3" cy="30.2" r="17.1"/>
	</g>
	<g>
		<defs>
			<path id="SVGID_1_" d="M61.6,11.7c1.4,0,2.7,0.2,4,0.4v-26.5H-34v134.5h99.5V80H30.2c-0.7,0-1.3-0.6-1.3-1.3
				c0-15.4,10.6-28.3,24.9-31.8c-6.3-2.9-10.7-9.3-10.7-16.7C43.1,20,51.4,11.7,61.6,11.7z"/>
		</defs>
		<clipPath id="SVGID_00000062172967298474427410000000849058879436889478_">
			<use xlink:href="#SVGID_1_"  style="overflow:visible;"/>
		</clipPath>
		<g style="clip-path:url(#SVGID_00000062172967298474427410000000849058879436889478_);">
			<path class="st0" d="M6.2,78.7c0-17.3,14-31.4,31.4-31.4l0,0c17.3,0,31.4,14,31.4,31.4H6.2z"/>
			<circle class="st0" cx="37.6" cy="30.2" r="17.1"/>
		</g>
	</g>
</g>
</svg>
