<?xml version="1.0" encoding="utf-8"?>
<!-- Generator: Adobe Illustrator 26.1.0, SVG Export Plug-In . SVG Version: 6.00 Build 0)  -->
<svg version="1.1" id="Layer_1" xmlns="http://www.w3.org/2000/svg" xmlns:xlink="http://www.w3.org/1999/xlink" x="0px" y="0px"
	 viewBox="0 0 100 100" style="enable-background:new 0 0 100 100;" xml:space="preserve">
<style type="text/css">
	.st0{fill:none;stroke:#FFFFFF;stroke-width:3;stroke-linecap:round;stroke-linejoin:round;stroke-miterlimit:10;}
</style>
<g>
	<path class="st0" d="M39.67,44.44h-18.9c-2.63,0-4.77-2.13-4.77-4.77v-18.9c0-2.63,2.13-4.77,4.77-4.77h18.9
		c2.63,0,4.77,2.13,4.77,4.77v18.9C44.44,42.3,42.3,44.44,39.67,44.44z"/>
	<path class="st0" d="M79.23,44.44h-18.9c-2.63,0-4.77-2.13-4.77-4.77v-18.9c0-2.63,2.13-4.77,4.77-4.77h18.9
		c2.63,0,4.77,2.13,4.77,4.77v18.9C84,42.3,81.87,44.44,79.23,44.44z"/>
	<path class="st0" d="M39.67,84h-18.9C18.13,84,16,81.87,16,79.23v-18.9c0-2.63,2.13-4.77,4.77-4.77h18.9
		c2.63,0,4.77,2.13,4.77,4.77v18.9C44.44,81.87,42.3,84,39.67,84z"/>
	<path class="st0" d="M79.23,84h-18.9c-2.63,0-4.77-2.13-4.77-4.77v-18.9c0-2.63,2.13-4.77,4.77-4.77h18.9
		c2.63,0,4.77,2.13,4.77,4.77v18.9C84,81.87,81.87,84,79.23,84z"/>
</g>
</svg>
