<?xml version="1.0" encoding="utf-8"?>
<!-- Generator: Adobe Illustrator 26.1.0, SVG Export Plug-In . SVG Version: 6.00 Build 0)  -->
<svg version="1.1" id="Layer_1" xmlns="http://www.w3.org/2000/svg" xmlns:xlink="http://www.w3.org/1999/xlink" x="0px" y="0px"
	 viewBox="0 0 100 100" style="enable-background:new 0 0 100 100;" xml:space="preserve">
<style type="text/css">
	.st0{fill:none;stroke:#DC3545;stroke-width:3;stroke-linecap:round;stroke-linejoin:round;stroke-miterlimit:10;}
</style>
<g>
	<path class="st0" d="M66.21,91H33.79C27,91,21.5,85.5,21.5,78.71V32h57v46.71C78.5,85.5,73,91,66.21,91z"/>
	<path class="st0" d="M78.5,32h-57c-3.87,0-7-3.13-7-7v0c0-3.87,3.13-7,7-7h57c3.87,0,7,3.13,7,7v0C85.5,28.87,82.37,32,78.5,32z"/>
	<path class="st0" d="M67.5,18h-35v-2.71c0-3.47,2.82-6.29,6.29-6.29h22.42c3.47,0,6.29,2.82,6.29,6.29V18z"/>
	<g>
		<line class="st0" x1="36.5" y1="44.5" x2="36.5" y2="78.5"/>
		<line class="st0" x1="50" y1="44.5" x2="50" y2="78.5"/>
		<line class="st0" x1="63.5" y1="44.5" x2="63.5" y2="78.5"/>
	</g>
</g>
</svg>
