<?xml version="1.0" encoding="utf-8"?>
<!-- Generator: Adobe Illustrator 26.1.0, SVG Export Plug-In . SVG Version: 6.00 Build 0)  -->
<svg version="1.1" id="Layer_1" xmlns="http://www.w3.org/2000/svg" xmlns:xlink="http://www.w3.org/1999/xlink" x="0px" y="0px"
	 viewBox="0 0 100 100" style="enable-background:new 0 0 100 100;" xml:space="preserve">
<style type="text/css">
	.st0{fill:none;stroke:#FFFFFF;stroke-width:3;stroke-linecap:round;stroke-linejoin:round;stroke-miterlimit:10;}
</style>
<g>
	<path class="st0" d="M74.77,93.5H25.23c-2.91,0-5.22-2.43-5.08-5.34l2.84-56.76c0.14-2.71,2.37-4.83,5.08-4.83h43.87
		c2.71,0,4.94,2.12,5.08,4.83l2.84,56.76C79.99,91.07,77.68,93.5,74.77,93.5z"/>
	<g>
		<polyline class="st0" points="42.19,60.69 47.4,66.54 57.81,53.53 		"/>
		<circle class="st0" cx="50" cy="60.04" r="17.29"/>
	</g>
	<path class="st0" d="M33.83,32.15v-8.37c0-9.55,7.74-17.29,17.29-17.29h0c9.55,0,17.29,7.74,17.29,17.29v8.37"/>
</g>
</svg>
