<?xml version="1.0" encoding="utf-8"?>
<!-- Generator: Adobe Illustrator 26.1.0, SVG Export Plug-In . SVG Version: 6.00 Build 0)  -->
<svg version="1.1" id="Layer_1" xmlns="http://www.w3.org/2000/svg" xmlns:xlink="http://www.w3.org/1999/xlink" x="0px" y="0px"
	 viewBox="0 0 100 100" style="enable-background:new 0 0 100 100;" xml:space="preserve">
<style type="text/css">
	.st0{fill:#FFFFFF;}
	.st1{fill:none;stroke:#FFFFFF;stroke-width:2;stroke-miterlimit:10;}
	.st2{fill:none;stroke:#FFFFFF;stroke-width:2;stroke-linecap:round;stroke-linejoin:round;stroke-miterlimit:10;}
	.st3{fill:none;stroke:#FFFFFF;stroke-width:2;stroke-linecap:round;stroke-miterlimit:10;}
</style>
<g>
	<g>
		<path class="st0" d="M77.1,4.03c0.56,0,1.07,0.23,1.44,0.66c0.37,0.42,0.52,0.96,0.44,1.52L68.9,75.74
			c-0.18,1.24-1.26,2.17-2.51,2.17H33.61c-1.25,0-2.33-0.93-2.51-2.17L21.02,6.2c-0.08-0.55,0.08-1.09,0.44-1.52
			c0.37-0.42,0.88-0.66,1.44-0.66h54.2 M77.1,2.03H22.9c-2.38,0-4.2,2.11-3.86,4.46l10.08,69.54c0.32,2.23,2.23,3.88,4.49,3.88H66.4
			c2.25,0,4.16-1.65,4.49-3.88L80.96,6.49C81.3,4.14,79.48,2.03,77.1,2.03L77.1,2.03z"/>
	</g>
	<line class="st1" x1="78.78" y1="15.01" x2="21.22" y2="15.01"/>
	<g>
		<g>
			<path class="st0" d="M66.06,79.65v12.89c0,1.89-1.54,3.42-3.42,3.42H37.36c-1.89,0-3.42-1.54-3.42-3.42V79.65H66.06 M68.06,77.65
				H31.94v14.89c0,3,2.43,5.42,5.42,5.42h25.27c3,0,5.42-2.43,5.42-5.42L68.06,77.65L68.06,77.65z"/>
		</g>
		<g>
			<path class="st0" d="M54.73,87.08c1.72,0,3.14,1.27,3.39,2.92H41.88c0.24-1.65,1.67-2.92,3.39-2.92H54.73 M54.73,85.08h-9.47
				c-3,0-5.42,2.43-5.42,5.42V92h20.32v-1.5C60.16,87.51,57.73,85.08,54.73,85.08L54.73,85.08z"/>
		</g>
		<line class="st1" x1="68.06" y1="91.2" x2="33.07" y2="91.2"/>
	</g>
	<g>
		<line class="st2" x1="50.56" y1="53.4" x2="50.56" y2="61.29"/>
		<line class="st2" x1="50.56" y1="25.17" x2="50.56" y2="33.32"/>
		<line class="st2" x1="43.51" y1="50.28" x2="37.79" y2="56"/>
		<line class="st2" x1="63.33" y1="30.46" x2="57.62" y2="36.18"/>
		<line class="st2" x1="40.65" y1="43.23" x2="32.5" y2="43.23"/>
		<line class="st2" x1="68.62" y1="43.23" x2="60.35" y2="43.23"/>
		<line class="st2" x1="43.51" y1="36.18" x2="37.79" y2="30.46"/>
		<line class="st2" x1="63.33" y1="56" x2="57.37" y2="50.04"/>
	</g>
	<g>
		<path class="st0" d="M50.56,34.5c4.81,0,8.72,3.91,8.72,8.72s-3.91,8.72-8.72,8.72s-8.72-3.91-8.72-8.72S45.75,34.5,50.56,34.5
			 M50.56,32.5c-5.92,0-10.72,4.8-10.72,10.72s4.8,10.72,10.72,10.72s10.72-4.8,10.72-10.72S56.49,32.5,50.56,32.5L50.56,32.5z"/>
	</g>
	<g>
		<line class="st3" x1="30.5" y1="8" x2="30.5" y2="14"/>
		<line class="st3" x1="40.25" y1="8" x2="40.25" y2="14"/>
		<line class="st3" x1="50" y1="8" x2="50" y2="14"/>
		<line class="st3" x1="59.75" y1="8" x2="59.75" y2="14"/>
		<line class="st3" x1="69.5" y1="8" x2="69.5" y2="14"/>
	</g>
</g>
</svg>
